<svg version="1.2" xmlns="http://www.w3.org/2000/svg" viewBox="0 0 129 45" width="129" height="45"><style></style><path fill-rule="evenodd" d="m-65.7 38.1c-4.5-1.3-5.3-4-3.2-5.5 1.9-1.4 5.2-2.5 5.2-2.5l13.4-4.8v5.5l-9.7 3.5c-1.7 0.6-1.9 1.5-0.6 1.9 1.4 0.5 4 0.3 5.7-0.3l4.6-1.7v4.9c-0.3 0.1-0.6 0.1-0.9 0.2q-1.8 0.3-3.7 0.4-1.8 0-3.6-0.1-1.8-0.2-3.6-0.5-1.8-0.4-3.6-1zm28.4 0.6l15.1-5.4c1.7-0.6 1.9-1.5 0.6-1.9-1.4-0.5-4-0.4-5.7 0.2l-10 3.6v-5.7l0.6-0.2q0.8-0.2 1.7-0.5 0.8-0.2 1.7-0.4 0.9-0.2 1.8-0.3 0.9-0.2 1.8-0.2c4-0.5 9 0 13 1.5 4.4 1.4 4.9 3.5 3.8 4.9-1.2 1.4-3.9 2.4-3.9 2.4l-20.5 7.4zm1.8-35.1c7.9 2.8 10.6 6.2 10.6 13.9 0 7.5-4.6 10.4-10.5 7.5v-14c0-1.6-0.3-3.1-1.8-3.6-1.2-0.4-1.9 0.7-1.9 2.4v35l-9.4-3v-41.8c4 0.8 9.8 2.5 13 3.6zm19 41.3q-0.2 0-0.4-0.1-0.2-0.1-0.4-0.2-0.2-0.2-0.4-0.3-0.5-0.6-0.6-1.3-0.1-0.7 0.1-1.3 0.3-0.7 0.9-1.1 0.6-0.4 1.3-0.4 0.2 0 0.4 0 0.3 0.1 0.5 0.2 0.2 0.1 0.4 0.2 0.2 0.1 0.3 0.3 0.4 0.3 0.5 0.8 0.2 0.4 0.2 0.9 0 0.4-0.2 0.9-0.1 0.4-0.5 0.8-0.1 0.1-0.3 0.3-0.2 0.1-0.4 0.2-0.2 0.1-0.5 0.1-0.2 0.1-0.4 0.1-0.2 0-0.5-0.1zm-1.4-1.9q0 0.2 0.1 0.3 0.1 0.2 0.2 0.4 0.1 0.1 0.2 0.3 0.1 0.1 0.3 0.2 0.2 0.1 0.3 0.2 0.2 0.1 0.4 0.1 0.2 0.1 0.4 0.1 0.6-0.1 1.1-0.4 0.4-0.3 0.7-0.9 0.2-0.5 0.1-1.1-0.1-0.6-0.5-1-0.3-0.3-0.7-0.5-0.3-0.1-0.7-0.1-0.4 0-0.8 0.1-0.3 0.2-0.6 0.5-0.1 0.1-0.2 0.3-0.1 0.1-0.2 0.3-0.1 0.2-0.1 0.4-0.1 0.2-0.1 0.4 0 0.2 0.1 0.4zm3.1 0.7v0.1h-0.5-0.1q0 0 0 0 0 0 0 0 0-0.1 0-0.1 0 0 0 0 0 0 0 0 0-0.1 0-0.1 0 0 0 0 0-0.1 0-0.1v-0.4q0-0.1 0-0.1 0 0-0.1-0.1 0 0 0 0 0-0.1-0.1-0.1 0 0 0 0-0.1 0-0.1 0 0 0-0.1 0 0 0 0 0h-0.8v1h-0.4v-2.6h1.2q0.1 0 0.1 0 0.1 0 0.1 0 0.1 0 0.2 0 0 0.1 0.1 0.1 0.1 0 0.2 0.1 0 0.1 0.1 0.2 0 0 0.1 0.1 0 0.1 0 0.2 0 0.1 0 0.1 0 0.1 0 0.1-0.1 0.1-0.1 0.1 0 0.1 0 0.1 0 0.1-0.1 0.1 0 0 0 0 0 0.1-0.1 0.1 0 0 0 0 0 0 0 0.1 0 0 0.1 0 0 0 0 0 0 0 0 0.1 0.1 0 0.1 0 0 0.1 0 0.1 0 0.1 0 0.1 0 0.1 0 0.1v0.4q0 0 0 0 0 0 0 0.1 0 0 0 0 0.1 0 0.1 0.1 0 0 0 0 0 0 0 0 0 0 0 0.1 0 0 0 0zm-0.5-1.8q0-0.1-0.1-0.1 0-0.1 0-0.1 0 0-0.1 0 0-0.1 0-0.1-0.1 0-0.1 0 0 0-0.1 0 0 0 0 0h-0.8v0.8h0.7q0.1 0 0.1 0 0.1 0 0.1-0.1 0 0 0.1 0 0 0 0.1 0 0-0.1 0-0.1 0 0 0.1-0.1 0 0 0 0 0-0.1 0-0.1 0-0.1 0-0.1z"/><path fill-rule="evenodd" d="m131.8 35.9h-0.4v-2.7h-1v-0.4h2.3v0.4h-0.9zm2.7-0.7l0.9-2.4h0.6v3.1h-0.4v-2.6l-1 2.6h-0.2l-1-2.6v2.6h-0.3v-3.1h0.6zm-8.1-23.4h-32.6v6.6c0 1.1 0.5 1.6 1 1.9q0.2 0 0.3 0.1 0.1 0 0.3 0.1 0.1 0 0.3 0 0.1 0 0.2 0h23.2q0.5 0 1.1 0.1 0.5 0 1 0.1 0.5 0.2 1 0.3 0.5 0.2 1 0.4c2 0.9 4.2 2.8 4.2 6.6 0 7.5-7.2 7.8-7.2 7.8h-32.1v-2.9h28.8q0.3 0 0.7 0 0.4-0.1 0.8-0.2 0.3-0.1 0.7-0.3 0.3-0.1 0.6-0.3c1.1-0.7 2.1-1.9 2.1-4.1 0-2.4-1.5-3.6-2.8-4.1q-0.3-0.2-0.6-0.3-0.3-0.1-0.7-0.2-0.3 0-0.7-0.1-0.3 0-0.6 0h-23.4c-5 0-4.9-4-4.9-4v-10.4h38.3zm-72.4 21.1q0.5 0 1-0.1 0.5-0.1 1-0.4 0.5-0.2 0.8-0.6 0.4-0.3 0.7-0.8 0.2-0.3 0.3-0.6 0.1-0.3 0.2-0.7 0.1-0.3 0.2-0.7 0-0.3 0-0.7v-11.5c0-7.8 7.3-7.9 7.3-7.9h16.8v2.9h-14.1q-0.4 0-0.7 0.1-0.4 0-0.7 0.1-0.3 0.1-0.6 0.3-0.4 0.2-0.6 0.4-0.4 0.3-0.7 0.7-0.4 0.4-0.6 0.9-0.2 0.4-0.3 0.9-0.1 0.5-0.1 1v12.4q0 0.8-0.1 1.5-0.2 0.8-0.5 1.4-0.3 0.7-0.7 1.3-0.5 0.6-1.1 1.1-0.5 0.5-1.1 0.8-0.7 0.4-1.3 0.7-0.7 0.2-1.4 0.3-0.7 0.1-1.5 0.1h-16.2v-2.9zm-19.4-24c0 0 7.2 0.1 7.2 7.3 0 4.6-3.3 6.3-5.3 6.8q-0.3 0.1-0.5 0.2-0.3 0-0.6 0.1-0.2 0-0.5 0-0.3 0-0.6 0h-21.6c-2.7 0-3.9 1.9-4.3 3.1q-0.1 0.2-0.2 0.4 0 0.2 0 0.3-0.1 0.2-0.1 0.4 0 0.2 0 0.4v7.9h-5.6v-7.9c0-3.5 2-5.6 3.8-6.5q0.4-0.2 0.9-0.4 0.4-0.2 0.9-0.3 0.4-0.1 0.9-0.1 0.5-0.1 1-0.1h21.4q0.3 0 0.6 0 0.3 0 0.6-0.1 0.3-0.1 0.6-0.1 0.3-0.1 0.6-0.3c1.1-0.5 2.4-1.6 2.4-3.8 0-2.2-1.3-3.4-2.4-3.9q-0.3-0.1-0.6-0.2-0.3-0.1-0.6-0.2-0.2 0-0.5-0.1-0.3 0-0.6 0h-29v-2.9z" fill="#565656"/></svg>