<svg version="1.2" xmlns="http://www.w3.org/2000/svg" viewBox="0 0 46 45" width="46" height="45"><style></style><path fill-rule="evenodd" d="m10.1 16.4q0.7 0 1 0.5 0.4 0.5 0.4 1.3 0 0.9-0.4 1.4-0.4 0.5-1.2 0.5v-0.8q0.5 0 0.7-0.3 0.2-0.3 0.2-0.8 0-0.4-0.1-0.7-0.2-0.2-0.5-0.2-0.3 0-0.4 0.2-0.1 0.2-0.2 0.7l-0.1 0.4q-0.2 0.7-0.5 1.1-0.3 0.3-0.9 0.3-0.5 0-0.9-0.4-0.3-0.4-0.3-1.2 0-0.9 0.4-1.4 0.3-0.4 1-0.4v0.8q-0.4 0-0.5 0.2-0.2 0.3-0.2 0.8 0 0.3 0.1 0.6 0.2 0.2 0.4 0.2 0.3 0 0.4-0.2 0.1-0.2 0.3-0.7v-0.4q0.2-0.8 0.5-1.1 0.3-0.4 0.8-0.4zm0 24q0.7 0 1 0.5 0.4 0.5 0.4 1.4 0 0.9-0.4 1.4-0.4 0.5-1.2 0.5v-0.9q0.5 0 0.7-0.2 0.2-0.3 0.2-0.9 0-0.4-0.2-0.6-0.1-0.3-0.4-0.3-0.3 0-0.4 0.2-0.2 0.2-0.3 0.7v0.4q-0.2 0.8-0.5 1.1-0.4 0.4-0.9 0.4-0.6 0-0.9-0.5-0.3-0.4-0.3-1.2 0-0.9 0.3-1.3 0.4-0.5 1.1-0.5v0.8q-0.4 0-0.6 0.3-0.2 0.2-0.1 0.7 0 0.4 0.1 0.6 0.1 0.2 0.4 0.2 0.2 0 0.4-0.2 0.1-0.2 0.2-0.7l0.1-0.4q0.2-0.7 0.5-1.1 0.3-0.3 0.8-0.4zm1.3-10.5v0.9q-0.2 0.1-0.5 0.1h-0.5q-0.4 0-0.6 0.2-0.1 0.2-0.1 0.5v1.1h1.7v0.9h-4.4v-2q0-0.2 0-0.3 0 0 0 0.1 0-0.6 0.2-0.9 0 0 0 0.1 0-0.1 0.1-0.2 0.3-0.4 0.9-0.4 0.8 0 1.1 0.7 0.1-0.3 0.3-0.5 0.2-0.1 0.6-0.1h0.7q0.3-0.1 0.5-0.2zm-3.1 1q-0.3 0-0.5 0.2-0.1 0.2-0.1 0.5v1.1h1.3v-1.1q0-0.3-0.2-0.5-0.2-0.2-0.5-0.2zm-1.3-3.7h4.4v0.9h-4.4zm0.7-2.9h1.1v-2.3h0.7v2.3h1.1v-2.5h0.8v3.3h-4.4v-3.3h0.7zm0 13.6h1.1v-2.2h0.7v2.2h1.1v-2.5h0.8v3.3h-4.4v-3.3h0.7zm13-4l3 4.1-4.5 6.2h-5.9zm19.2 10.3h-5.9l-19.9-27.6h5.9zm-7.4-18.5l-3-4.1 3.7-5.1h5.9z" fill="#565656"/><path fill-rule="evenodd" d="m11.8 13h-2.1l-3.5-5-3.6 5h-2.1l4.6-6.4-4.2-5.9h2.1l3.2 4.5 3.2-4.5h2.1l-4.3 5.9zm10.8-3.5q0 1.6-1.1 2.5-1 1-3 1h-5.7v-5.5h-2.7l1.1-1.6h1.6v-5.2h5.5q1.8 0 2.8 0.9 1 0.9 1 2.3c0 1.2-0.6 2.1-1.6 2.7 0.7 0.2 1.2 0.6 1.5 1.1 0.4 0.5 0.6 1.1 0.6 1.8zm-8-3.6h3.5q1.1 0 1.6-0.4 0.6-0.5 0.6-1.5 0-0.8-0.6-1.2-0.5-0.5-1.6-0.5h-3.5zm6.1 3.5c0-0.6-0.2-1.2-0.6-1.5q-0.5-0.5-1.7-0.4h-3.8v3.8h3.8q1.1 0 1.7-0.5 0.6-0.5 0.6-1.4zm14.4-2.6c0 0.9-0.1 1.8-0.4 2.6q-0.4 1.1-1.2 2-0.8 0.9-1.9 1.4-1.1 0.4-2.4 0.4c-0.9 0-1.7-0.2-2.5-0.4q-1-0.5-1.8-1.4-0.9-0.9-1.3-2c-0.3-0.8-0.4-1.7-0.4-2.6 0-1 0.1-1.8 0.4-2.6 0.3-0.8 0.7-1.5 1.3-2.1q0.7-0.8 1.8-1.3c0.8-0.3 1.6-0.4 2.5-0.4q1.3 0 2.4 0.4c0.7 0.3 1.4 0.7 1.9 1.3 0.5 0.6 0.9 1.3 1.2 2.1q0.4 1.1 0.4 2.6zm-10 0q0 2.2 1.1 3.4 1.1 1.3 3 1.3 1.8 0 2.9-1.3 1.1-1.2 1.1-3.4 0-2.2-1.1-3.5-1.1-1.2-2.9-1.3-1.9 0.1-3 1.3-1.1 1.3-1.1 3.5zm20.5 6.1h-2.1l-3.6-4.9-3.5 4.9h-2.1l4.6-6.4-4.2-5.9h2l3.2 4.5 3.2-4.5h2.1l-4.2 5.9z" fill="#565656"/></svg>